HIERARCHY
ROOT Hips
{
	OFFSET 0.00000 0.00000 0.00000
	CHANNELS 6 Xposition Yposition Zposition Zrotation Yrotation Xrotation 
	JOINT LHipJoint
	{
		OFFSET 0 0 0
		CHANNELS 3 Zrotation Yrotation Xrotation
		JOINT LeftHip
		{
			OFFSET 1.58161 -1.81893 0.78828
			CHANNELS 3 Zrotation Yrotation Xrotation
			JOINT LeftKnee
			{
				OFFSET 2.53374 -6.96141 0.00000
				CHANNELS 3 Zrotation Yrotation Xrotation
				JOINT LeftAnkle
				{
					OFFSET 2.63509 -7.23986 0.00000
					CHANNELS 3 Zrotation Yrotation Xrotation
					JOINT LeftToe
					{
						OFFSET 0.14115 -0.38781 2.05350
						CHANNELS 3 Zrotation Yrotation Xrotation
						End Site
						{
							OFFSET 0.00000 -0.00000 1.05543
						}
					}
				}
			}
		}
	}
	JOINT RHipJoint
	{
		OFFSET 0 0 0
		CHANNELS 3 Zrotation Yrotation Xrotation
		JOINT RightHip
		{
			OFFSET -1.11138 -1.81893 0.78828
			CHANNELS 3 Zrotation Yrotation Xrotation
			JOINT RightKnee
			{
				OFFSET -2.58392 -7.09926 0.00000
				CHANNELS 3 Zrotation Yrotation Xrotation
				JOINT RightAnkle
				{
					OFFSET -2.66423 -7.31992 0.00000
					CHANNELS 3 Zrotation Yrotation Xrotation
					JOINT RightToe
					{
						OFFSET -0.18831 -0.51739 2.12114
						CHANNELS 3 Zrotation Yrotation Xrotation
						End Site
						{
							OFFSET -0.00000 -0.00000 1.09845
						}
					}
				}
			}
		}
	}
	JOINT lowerback
	{
		OFFSET 0 0 0
		CHANNELS 3 Zrotation Yrotation Xrotation
		JOINT Chest
		{
			OFFSET -0.01511 1.97958 -0.08829
			CHANNELS 3 Zrotation Yrotation Xrotation
			JOINT Chest2
			{
				OFFSET 0.08344 1.97334 -0.04330
				CHANNELS 3 Zrotation Yrotation Xrotation
				JOINT lowerneck
				{
					OFFSET 0 0 0
					CHANNELS 3 Zrotation Yrotation Xrotation
					JOINT Neck
					{
						OFFSET 0.00559 1.76246 0.31246
						CHANNELS 3 Zrotation Yrotation Xrotation
						JOINT Head
						{
							OFFSET -0.07011 1.80354 -0.30524
							CHANNELS 3 Zrotation Yrotation Xrotation
							End Site
							{
								OFFSET -0.02385 1.83547 -0.13906
							}
						}
					}
				}
				JOINT LeftCollar
				{
					OFFSET 0 0 0
					CHANNELS 3 Zrotation Yrotation Xrotation
					JOINT LeftShoulder
					{
						OFFSET 3.20667 1.30156 -0.60240
CHANNELS 3 Zrotation Xrotation Yrotation
						JOINT LeftElbow
						{
OFFSET 0 -4.956630 0.000000
CHANNELS 3 Zrotation Xrotation Yrotation
							JOINT LeftWrist
							{
OFFSET 0 -3.381770 0.000000
CHANNELS 3 Zrotation Xrotation Yrotation
								JOINT lhand
								{
									OFFSET 0 0 0
CHANNELS 3 Zrotation Xrotation Yrotation
									JOINT LFingers
									{
OFFSET 0 -0.662910 0.000000
CHANNELS 3 Zrotation Xrotation Yrotation
										End Site
										{
OFFSET 0 -0.534450 0.000000
										}
									}
								}
								JOINT LThumb
								{
OFFSET 0 0.000000 0.000000
CHANNELS 3 Zrotation Xrotation Yrotation
									End Site
									{
OFFSET 0 -0.542610 0.542610
									}
								}
							}
						}
					}
				}
				JOINT RightCollar
				{
					OFFSET 0 0 0
					CHANNELS 3 Zrotation Yrotation Xrotation
					JOINT RightShoulder
					{
						OFFSET -3.06877 1.34672 -0.60964
CHANNELS 3 Zrotation Xrotation Yrotation
						JOINT RightElbow
						{
OFFSET 0 -5.083650 0.000000
CHANNELS 3 Zrotation Xrotation Yrotation
							JOINT RightWrist
							{
OFFSET 0 -3.359840 0.000000
CHANNELS 3 Zrotation Xrotation Yrotation
								JOINT rhand
								{
									OFFSET 0 0 0
CHANNELS 3 Zrotation Xrotation Yrotation
									JOINT RFingers
									{
OFFSET 0 -0.820760 0.000000
CHANNELS 3 Zrotation Xrotation Yrotation
										End Site
										{
OFFSET 0 -0.661720 0.000000
										}
									}
								}
								JOINT RThumb
								{
OFFSET 0 0.000000 0.000000
CHANNELS 3 Zrotation Xrotation Yrotation
									End Site
									{
OFFSET 0 -0.671820 0.671820
									}
								}
							}
						}
					}
				}
			}
		}
	}
}
MOTION
Frames: 4
Frame Time: 0.008333333333333333
-1.021300 18.016300 -7.738900 -2.166100 -6.779100 9.211100 0.000000 0.000000 0.000000 -10.439700 -5.580000 -11.389400 1.667700 8.136700 23.130100 0.615800 -1.238900 -14.450800 0.325800 -3.668800 -10.146800 0.000000 0.000000 0.000000 27.248400 5.263700 -15.037200 -2.114000 -9.099600 26.107400 -0.804100 -0.078400 -16.978500 -0.844900 -5.863000 16.387500 -4.606100 -2.290000 -5.855800 5.448100 -2.933300 -0.775500 8.078100 -1.565500 3.006400 -5.646800 -8.710900 -15.053700 -2.482700 -10.179300 21.206700 -1.207700 -5.483600 9.333800 0.000000 -0.000000 0.000000 -4.448600 -2.265000 4.950300 8.962600 -15.100700 1.190300 13.217600 14.540300 -30.814700 0.000000 0.000000 0.000000 -7.125000 0.000000 0.000000 -21.183600 60.211100 8.074800 0.000000 -0.000000 0.000000 -9.566400 -1.550000 28.634100 -16.204800 -25.797500 -3.734600 -20.953100 -13.409000 -11.201900 0.000000 0.000000 0.000000 7.125000 0.000000 -0.000000 4.326400 18.027100 2.783100
-1.024940 18.012739 -7.733994 -2.204004 -6.632785 9.180239 0.000000 0.000000 0.000000 -10.381775 -5.616084 -11.323246 1.657413 8.112723 23.056903 0.611843 -1.217455 -14.408781 0.370510 -3.907937 -10.818076 0.000000 0.000000 0.000000 27.326582 5.236637 -15.008159 -2.118511 -9.108700 26.135887 -0.795554 -0.325766 -16.977867 -0.717339 -5.406884 15.074227 -4.613618 -2.307805 -5.832140 5.491148 -2.959334 -0.750020 8.127162 -1.580693 3.027212 -5.667928 -8.706627 -15.177779 -2.467032 -10.162445 21.282508 -1.206038 -5.475212 9.385077 0.000000 0.000000 0.000000 -4.430637 -2.428486 4.588905 9.070932 -15.273366 1.218787 13.021274 14.277820 -31.082957 0.000000 0.000000 0.000000 -7.125000 0.000000 0.000000 -21.606956 60.412332 8.350021 0.000000 0.000000 0.000000 -9.625828 -1.529188 28.708880 -16.140624 -25.710930 -3.706746 -20.825539 -13.319106 -11.427426 0.000000 0.000000 0.000000 7.125000 0.000000 0.000000 4.422070 17.798646 2.867375
-1.027065 18.010110 -7.728388 -2.196579 -6.503833 9.174489 0.000000 0.000000 0.000000 -10.380600 -5.690448 -11.268278 1.648524 8.092067 22.994019 0.606955 -1.161693 -14.364431 0.411665 -4.116776 -11.405743 0.000000 0.000000 0.000000 27.341723 5.174616 -15.028001 -2.123021 -9.117800 26.164491 -0.790853 -0.486844 -16.988187 -0.627592 -5.065547 14.096379 -4.593984 -2.271191 -5.866277 5.506870 -2.912423 -0.692785 8.135847 -1.561103 3.097839 -5.805293 -8.764521 -15.407373 -2.375563 -10.211836 21.372708 -1.176235 -5.497063 9.473294 0.000000 0.000000 0.000000 -4.405566 -2.677329 4.019741 9.176117 -15.440613 1.246634 12.891019 13.934294 -31.215693 0.000000 0.000000 0.000000 -7.125000 0.000000 0.000000 -21.852257 60.503738 8.497585 0.000000 0.000000 0.000000 -9.699706 -1.557726 28.684086 -16.098530 -25.654074 -3.688505 -20.700076 -13.184641 -11.453107 0.000000 0.000000 0.000000 7.125000 0.000000 0.000000 4.510749 17.782098 2.926772
-1.029022 18.009162 -7.722495 -2.160877 -6.383380 9.191869 0.000000 0.000000 0.000000 -10.408126 -5.805334 -11.226217 1.640510 8.073386 22.937184 0.607192 -1.112599 -14.380464 0.443620 -4.272881 -11.845780 0.000000 0.000000 0.000000 27.322954 5.062528 -15.093285 -2.126484 -9.124769 26.186406 -0.791568 -0.539195 -17.015520 -0.592822 -4.929301 13.707012 -4.582389 -2.222416 -5.964943 5.508803 -2.846826 -0.628852 8.134371 -1.533580 3.208073 -5.959047 -8.835557 -15.591592 -2.274333 -10.280242 21.406396 -1.138970 -5.527725 9.535364 0.000000 0.000000 0.000000 -4.372564 -2.933933 3.396093 9.280998 -15.607079 1.274700 12.776126 13.520980 -31.224200 0.000000 0.000000 0.000000 -7.125000 0.000000 0.000000 -21.980235 60.484306 8.539820 0.000000 0.000000 0.000000 -9.773672 -1.608127 28.629763 -16.050023 -25.588415 -3.667537 -20.597054 -13.036642 -11.403845 0.000000 0.000000 0.000000 7.125000 0.000000 0.000000 4.581704 17.842980 2.966975
